<?xml version="1.0" encoding="UTF-8"?>
<svg width="56px" height="7px" viewBox="0 0 56 7" version="1.1" xmlns="http://www.w3.org/2000/svg" xmlns:xlink="http://www.w3.org/1999/xlink">
    <title>barBG_over</title>
    <defs>
        <path d="M1,0 L51.1488308,0 L51.1488308,0 L53.1578273,1.11111111 L53.1578273,3.88888889 L51.1488308,5 L1,5 L1,4 L0,4 L0,1 L1,1 L1,0 Z" id="path-1"></path>
    </defs>
    <g id="Page-1" stroke="none" stroke-width="1" fill="none" fill-rule="evenodd">
        <g id="Artboard" transform="translate(-68.000000, -50.000000)">
            <g id="Shield-Bar" transform="translate(69.000000, 51.000000)">
                <g id="barBG_over" transform="translate(0.842173, 0.000000)">
                    <g id="Group" transform="translate(0.157827, 0.000000)">
                        <rect id="Rectangle" fill-opacity="0.134292709" fill="#000000" x="0" y="2" width="53" height="3"></rect>
                        <polygon id="Rectangle" fill-opacity="0.403288728" fill="#FFFFFF" points="0 0 51 0 53 0 53 3 0 3"></polygon>
                    </g>
                    <mask id="mask-2" fill="white">
                        <use xlink:href="#path-1"></use>
                    </mask>
                    <path stroke="#000000" d="M51.2778862,-0.5 L53.6578273,0.816268579 L53.6578273,4.18373142 L51.2778862,5.5 L0.5,5.5 L0.5,4.5 L-0.5,4.5 L-0.5,0.5 L0.5,0.5 L0.5,-0.5 L51.2778862,-0.5 Z"></path>
                </g>
            </g>
        </g>
    </g>
</svg>